<svg width="130" height="130" viewBox="0 0 130 130" fill="none" xmlns="http://www.w3.org/2000/svg">
<rect width="130" height="130" rx="12" fill="#FF385C"/>
<path d="M104.855 83.5425C104.419 82.4855 103.983 81.3403 103.546 80.3714C102.848 78.7858 102.15 77.2883 101.539 75.8789L101.452 75.7908C95.4305 62.5776 88.9729 49.1882 82.1662 35.975L81.9044 35.4464C81.2062 34.1251 80.5081 32.7157 79.81 31.3063C78.9373 29.7207 78.0647 28.047 76.6684 26.4615C73.8759 22.9379 69.8617 21 65.5857 21C61.2224 21 57.2955 22.9379 54.4157 26.2853C53.1068 27.8709 52.1468 29.5445 51.2742 31.1301C50.5761 32.5395 49.8779 33.9489 49.1798 35.2703L48.918 35.7988C42.1986 49.012 35.6537 62.4014 29.6323 75.6146L29.5451 75.7908C28.9342 77.2002 28.2361 78.6977 27.538 80.2833C27.1016 81.2523 26.6653 82.3093 26.229 83.4545C25.0945 86.7137 24.7455 89.7968 25.1818 92.968C26.1417 99.5746 30.505 105.124 36.5263 107.591C38.7952 108.56 41.1514 109 43.5948 109C44.2929 109 45.1656 108.912 45.8637 108.824C48.7435 108.471 51.7105 107.503 54.5903 105.829C58.1682 103.803 61.5715 100.896 65.4112 96.6677C69.2509 100.896 72.7415 103.803 76.2321 105.829C79.1119 107.503 82.0789 108.471 84.9587 108.824C85.6568 108.912 86.5294 109 87.2276 109C89.671 109 92.1144 108.56 94.2961 107.591C100.405 105.124 104.681 99.4865 105.641 92.968C106.339 89.8849 105.99 86.8018 104.855 83.5425ZM65.4985 88.1231C60.7861 82.1331 57.7318 76.4955 56.6846 71.7387C56.2483 69.7127 56.161 67.951 56.4228 66.3654C56.5974 64.956 57.121 63.7227 57.8191 62.6657C59.4771 60.2873 62.2696 58.7898 65.4985 58.7898C68.7273 58.7898 71.607 60.1992 73.1778 62.6657C73.8759 63.7227 74.3995 64.956 74.5741 66.3654C74.8359 67.951 74.7486 69.8008 74.3123 71.7387C73.2651 76.4074 70.2108 82.045 65.4985 88.1231ZM100.317 92.2633C99.7065 96.8438 96.6522 100.808 92.3762 102.57C90.2818 103.45 88.0129 103.715 85.744 103.45C83.5624 103.186 81.3808 102.481 79.1119 101.16C75.9703 99.3984 72.8288 96.6677 69.1636 92.6156C74.9231 85.4805 78.4137 78.962 79.7227 73.1481C80.3336 70.4174 80.4209 67.951 80.1591 65.6607C79.81 63.4585 79.0246 61.4324 77.8029 59.6707C75.0977 55.7067 70.5599 53.4164 65.4985 53.4164C60.4371 53.4164 55.8993 55.7948 53.194 59.6707C51.9723 61.4324 51.1869 63.4585 50.8379 65.6607C50.4888 67.951 50.5761 70.5055 51.2742 73.1481C52.5832 78.962 56.1611 85.5686 61.8333 92.7037C58.2554 96.7558 55.0266 99.4865 51.885 101.248C49.6161 102.57 47.4345 103.274 45.2529 103.539C42.8967 103.803 40.6278 103.45 38.6207 102.658C34.3447 100.896 31.2904 96.9319 30.6795 92.3514C30.4177 90.1492 30.5923 87.9469 31.4649 85.4805C31.7267 84.5996 32.163 83.7187 32.5994 82.6617C33.2102 81.2523 33.9084 79.7548 34.6065 78.2573L34.6937 78.0811C40.7151 64.956 47.1727 51.5666 53.8921 38.5295L54.1539 38.001C54.8521 36.6797 55.5502 35.2703 56.2483 33.9489C56.9464 32.5395 57.7318 31.2182 58.6917 30.0731C60.5243 27.959 62.9678 26.8138 65.673 26.8138C68.3782 26.8138 70.8216 27.959 72.6542 30.0731C73.6141 31.2182 74.3995 32.5395 75.0977 33.9489C75.7958 35.2703 76.4939 36.6797 77.192 38.001L77.4538 38.5295C84.086 51.6547 90.5436 65.044 96.565 78.1692V78.2573C97.2631 79.6667 97.8739 81.2523 98.5721 82.6617C99.0084 83.7187 99.4447 84.5996 99.7065 85.4805C100.405 87.7708 100.666 89.973 100.317 92.2633Z" fill="white"/>
</svg>
